<svg xmlns="http://www.w3.org/2000/svg" fill="none" viewBox="0 0 322 39" aria-label="株式会社エイプリルナイツ">
  <path fill="#24252D" d="M80.42 31.563 70.96 6.625h-5.79l-9.458 24.938h5.856l1.85-5.597h9.29c.616 1.866 1.24 3.732 1.856 5.597zm-9.011-9.524H64.73l2.253-6.797c.168-.427.344-.944.535-1.543.191-.585.374-1.237.55-1.934.191.682.382 1.32.573 1.904.147.42.272.802.389 1.146q.068.203.125.383l2.252 6.834zM89.24 23.223v8.333h-5.665V6.625h8.615c1.725 0 3.2.21 4.433.622s2.252.99 3.052 1.723a6.76 6.76 0 0 1 1.769 2.578c.381.99.572 2.068.572 3.215 0 1.244-.191 2.383-.587 3.425a6.8 6.8 0 0 1-1.798 2.667c-.8.75-1.82 1.319-3.052 1.739q-1.85.62-4.381.622h-2.943l-.022.015zm0-4.361h2.943c1.475 0 2.539-.352 3.185-1.08.646-.718.968-1.723.968-3.004 0-.577-.08-1.087-.25-1.551a3.2 3.2 0 0 0-.762-1.207 3.4 3.4 0 0 0-1.292-.779c-.528-.18-1.137-.27-1.856-.27h-2.943v7.906l.015-.015zM134.341 31.563h-5.694V6.625h5.694zM145.202 26.94h9.056v4.623h-14.721V6.625h5.665v20.322-.015zM227.105 31.563h-5.695V6.625h5.695zM279.522 31.563h-5.702V21.02h-9.929v10.543h-5.702V6.625h5.702v10.431h9.929V6.625h5.702zM302.755 6.625v4.586h-6.825v20.352h-5.621V11.211h-6.825V6.625h19.278zM119.966 22.886a4.3 4.3 0 0 0-.866-1.042 5.4 5.4 0 0 0-1.064-.72 8.2 8.2 0 0 0 2.106-1.183 7.5 7.5 0 0 0 1.541-1.634 7 7 0 0 0 .947-1.993q.317-1.08.315-2.293.002-1.596-.536-2.945a5.9 5.9 0 0 0-1.717-2.345c-.785-.66-1.805-1.177-3.052-1.551-1.248-.368-2.752-.555-4.521-.555h-7.947v24.938h5.665V22.34h1.438q.65 0 1.013.202c.242.135.448.367.631.682l3.743 6.677.932 1.656h6.56l-5.196-8.678zm-2.781-6.91a3.2 3.2 0 0 1-.756 1.245c-.345.352-.793.63-1.328.832q-.813.302-1.967.3h-2.282v-7.397h2.282c1.468 0 2.546.308 3.243.922q1.048.92 1.05 2.57-.002.82-.235 1.529zM211.225 6.625v13.196c0 .397.007.824.036 1.274.022.45.059.914.103 1.394l-7.184-9.27-2.319-2.997-.705-.907-1.394-1.798-.69-.892h-4.168v24.938h4.998V18.195c0-.367-.008-.757-.037-1.169-.022-.42-.051-.84-.081-1.274l11.514 14.852.741.952h4.183V6.625zM184.241 6.625q-3.136 4.64-6.274 9.292c-.374.54-.968.81-1.805.81h-.895V6.631h-5.665v24.939h5.665V20.96h1.379c.529 0 .932.059 1.248.194.308.12.565.352.763.674l6.208 9.742h6.583l-7.375-11.563a4.5 4.5 0 0 0-.969-1.124 4 4 0 0 0-1.159-.66c.286-.156.572-.351.851-.599.279-.232.55-.54.8-.906l7.242-10.087h-6.597zM244.636 27.404q1.176 0 2.076-.202a10 10 0 0 0 1.71-.547V22.87h-3.552v-4.203h8.682v10.528q-.936.698-1.96 1.214a12.6 12.6 0 0 1-2.165.824c-.763.218-1.577.375-2.443.48-.859.105-1.791.157-2.781.157-1.791 0-3.442-.322-4.961-.959a12.4 12.4 0 0 1-3.955-2.668c-1.108-1.139-1.974-2.487-2.613-4.039q-.937-2.35-.939-5.08c0-1.821.301-3.567.902-5.118.602-1.566 1.461-2.908 2.584-4.04q1.695-1.694 4.072-2.637 2.4-.944 5.35-.944c1.02 0 1.974.082 2.869.255q1.343.256 2.466.704c.756.3 1.453.652 2.077 1.064s1.181.854 1.673 1.334c-.844 1.311-1.688 2.615-2.532 3.926-.719-.464-1.152-.779-1.842-1.198-.653-.375-1.336-.727-2.062-.952a8 8 0 0 0-1.306-.277c-.455-.06-.969-.083-1.541-.083q-1.594 0-2.87.585a6.1 6.1 0 0 0-2.179 1.61q-.89 1.047-1.372 2.518-.485 1.453-.485 3.253c0 1.326.177 2.495.536 3.522q.54 1.54 1.475 2.6a6.55 6.55 0 0 0 2.246 1.626q1.308.549 2.847.547zM321.298 9.053a8.8 8.8 0 0 0-1.482-1.101c-.55-.33-1.152-.615-1.783-.847a11 11 0 0 0-2.026-.525c-.719-.12-1.438-.18-2.186-.18-1.343 0-2.525.21-3.567.622s-1.915.967-2.634 1.664a7.1 7.1 0 0 0-1.629 2.383 7 7 0 0 0-.551 2.735c0 1.162.154 2.136.47 2.93.308.78.734 1.454 1.233 1.978a6.5 6.5 0 0 0 1.739 1.282c.66.314 1.313.584 1.996.816.682.233 1.35.428 1.996.615a10 10 0 0 1 1.732.637c.513.232.924.54 1.233.906.308.368.469.832.469 1.417 0 1.004-.279 1.738-.851 2.203q-.85.696-2.392.697c-.756 0-1.417-.113-1.974-.33a17 17 0 0 1-1.806-.854 22 22 0 0 1-2.311-1.484l-2.451 3.957a9 9 0 0 0 1.688 1.333c.66.405 1.343.75 2.084 1.042s1.497.517 2.289.674c.793.158 1.571.248 2.319.248 1.387 0 2.62-.21 3.713-.637 1.086-.427 2.011-1.012 2.752-1.761a7.7 7.7 0 0 0 1.703-2.63c.396-1.012.587-2.091.587-3.238 0-1.041-.154-1.933-.47-2.667-.315-.735-.719-1.357-1.233-1.874a6.6 6.6 0 0 0-1.746-1.273 18 18 0 0 0-1.996-.87 37 37 0 0 0-1.996-.674 11 11 0 0 1-1.747-.66c-.513-.247-.924-.524-1.233-.854-.308-.33-.469-.742-.469-1.244 0-.78.264-1.408.778-1.873.513-.465 1.306-.697 2.37-.697.609 0 1.159.082 1.636.247.764.255 1.035.382 1.674.682.814.39 1.996 1.14 2.01 1.147l2.07-3.95zM21.591.006l-.005.008-2.597 18.89 9.472 7.567 6.547-2.705zM17.316 31.076.006 38.225 0 38.233h43.178l-.005-.01-14.71-11.752z"/>
  <path fill="url(#logo-horizontal-a)" d="m43.173 38.222-8.162-14.456-6.547 2.705z"/>
  <path fill="url(#logo-horizontal-b)" d="m.005 38.224 17.311-7.149 1.673-12.172L21.586.013V0z"/>
  <defs>
    <linearGradient id="logo-horizontal-a" x1="35.818" x2="35.818" y1="-0.007" y2="38.256" gradientUnits="userSpaceOnUse">
      <stop stop-color="#6AB7F4"/>
      <stop offset="1" stop-color="#A496FB"/>
    </linearGradient>
    <linearGradient id="logo-horizontal-b" x1="10.797" x2="10.797" y1="0" y2="38.266" gradientUnits="userSpaceOnUse">
      <stop stop-color="#6AB7F4"/>
      <stop offset="1" stop-color="#A496FB"/>
    </linearGradient>
  </defs>
</svg>
